#!OML:ASF X:\für Bonn\!DataBase\2005_08_12_Daniel\c3d\Daniel.ASF
:FULLY-SPECIFIED
:DEGREES
147
root 12.299 5.38982 -0.423089 -708.377 -55.6992 -85.4673
lowerback 67.7283 -1.82566 5.21397
upperback 15.7192 -3.39344 -2.53776
thorax -3.77243 -3.32101 -3.46312
lowerneck 1.08918 1.30122 -15.5939
upperneck 9.96382 1.51899 2.84852
head 2.6937 0.188805 3.39855
rclavicle -5.96354e-015 6.36111e-014
rhumerus -44.3241 13.125 -97.4884
rradius 27.0065
rwrist 16.6712
rhand -16.051 -346.075
rfingers 7.12502
rthumb 10.151 -375.81
lclavicle -5.96354e-015 6.36111e-014
lhumerus -432.849 55.2678 -353.503
lradius 17.9813
lwrist -58.159
lhand -71.6582 451.681
lfingers 7.12502
lthumb -43.1615 292.508
rfemur 176.603 32.3598 107.856
rtibia 216.905
rfoot 103.684 115.077
rtoes 18.9821
lfemur -61.7687 11.9282 -8.5028
ltibia 112.914
lfoot 15.3763 -13.2897
ltoes 13.0199
148
root 12.3325 5.35003 -0.378648 -708.378 -55.5796 -85.9993
lowerback 67.9768 -2.32115 5.67197
upperback 15.5499 -3.61424 -2.5065
thorax -3.95529 -3.40676 -3.51206
lowerneck 1.28984 1.27526 -15.4406
upperneck 9.67136 1.46807 2.48818
head 2.58326 0.170587 3.25753
rclavicle 2.46493e-014 -8.26944e-014
rhumerus -45.1193 12.678 -97.9089
rradius 26.4034
rwrist 17.0297
rhand -16.6514 -345.964
rfingers 7.12502
rthumb 9.57174 -375.727
lclavicle 2.46493e-014 -8.26944e-014
lhumerus -431.5 54.4851 -351.048
lradius 18.1344
lwrist -56.8286
lhand -71.7002 451.656
lfingers 7.12502
lthumb -43.2008 292.518
rfemur 177.113 33.1867 107.758
rtibia 216.986
rfoot 101.753 113.941
rtoes 17.4643
lfemur -61.2433 12.3809 -8.47399
ltibia 112.85
lfoot 16.6685 -14.5563
ltoes 14.6336
149
root 12.3664 5.30219 -0.328475 -708.338 -55.5981 -86.5647
lowerback 68.2364 -2.7814 6.12895
upperback 15.3878 -3.80079 -2.48569
thorax -4.12658 -3.47823 -3.58546
lowerneck 1.44852 1.23733 -15.3597
upperneck 9.39792 1.40647 2.15429
head 2.48553 0.145302 3.1369
rclavicle -1.59028e-015 -2.54444e-014
rhumerus -45.8313 11.9804 -98.1136
rradius 25.766
rwrist 17.6601
rhand -17.2262 -345.804
rfingers 7.12502
rthumb 9.01706 -375.591
lclavicle -1.59028e-015 -2.54444e-014
lhumerus -429.728 53.5188 -347.95
lradius 18.3573
lwrist -55.0665
lhand -71.7481 451.482
lfingers 7.12502
lthumb -43.2456 292.676
rfemur 177.321 33.9433 107.22
rtibia 217.161
rfoot 97.9731 113.062
rtoes 16.6548
lfemur -60.8115 12.923 -8.45993
ltibia 112.982
lfoot 18.1689 -16.003
ltoes 16.4308
150
root 12.3959 5.24566 -0.274769 -708.238 -55.6925 -87.1348
lowerback 68.4771 -3.23188 6.57214
upperback 15.1957 -3.97746 -2.46488
thorax -4.33142 -3.54384 -3.65406
lowerneck 1.45444 1.17649 -15.2387
upperneck 9.07069 1.37656 1.49434
head 2.63088 0.113409 3.2292
rclavicle 4.69132e-014 -6.99722e-014
rhumerus -46.5037 10.9437 -98.0271
rradius 25.0226
rwrist 18.7091
rhand -17.7818 -345.585
rfingers 7.12502
rthumb 8.48093 -375.395
lclavicle 4.69132e-014 -6.99722e-014
lhumerus -428.252 52.5316 -345.091
lradius 18.5827
lwrist -53.3899
lhand -71.7249 451.537
lfingers 7.12502
lthumb -43.2238 292.629
rfemur 177.914 35.0093 107.84
rtibia 217.521
rfoot 91.3277 113.294
rtoes 14.4297
lfemur -60.5388 13.4837 -8.51226
ltibia 113.236
lfoot 19.6715 -17.5048
ltoes 17.5849
151
root 12.4203 5.1818 -0.217254 -708.055 -55.8691 -87.7176
lowerback 68.6399 -3.65982 7.02884
upperback 15.0122 -4.11697 -2.4407
thorax -4.52641 -3.58984 -3.74008
lowerneck 1.5944 1.12633 -15.2785
upperneck 8.87027 1.29603 1.19148
head 2.54427 0.0738519 3.12388
rclavicle 1.03368e-014 4.45278e-014
rhumerus -47.1627 9.72196 -97.7069
rradius 24.2452
rwrist 20.054
rhand -18.3284 -345.283
rfingers 7.12502
rthumb 7.95341 -375.113
lclavicle 1.03368e-014 4.45278e-014
lhumerus -427.322 51.7766 -342.897
lradius 18.7222
lwrist -52.2394
lhand -71.7649 451.951
lfingers 7.12502
lthumb -43.2613 292.202
rfemur 178.433 36.1421 108.496
rtibia 217.966
rfoot 85.3896 112.735
rtoes 12.2359
lfemur -60.3637 14.06 -8.64425
ltibia 113.505
lfoot 21.1857 -19.0731
ltoes 17.8169
152
root 12.4403 5.11214 -0.157665 -707.899 -56.1286 -88.2742
lowerback 68.8264 -4.0424 7.4219
upperback 14.816 -4.2446 -2.39744
thorax -4.73227 -3.63722 -3.78128
lowerneck 1.69599 1.08644 -15.4514
upperneck 8.71568 1.23282 0.916208
head 2.48003 0.0361486 3.05514
rclavicle -5.42682e-014 -9.54166e-015
rhumerus -47.8049 8.32232 -97.1078
rradius 23.4279
rwrist 21.7726
rhand -18.8494 -344.952
rfingers 7.12502
rthumb 7.45056 -374.801
lclavicle -5.42682e-014 -9.54166e-015
lhumerus -427.013 51.2779 -341.43
lradius 18.7869
lwrist -51.5342
lhand -71.7764 452.533
lfingers 7.12502
lthumb -43.272 291.616
rfemur 179.445 37.4354 110.206
rtibia 218.524
rfoot 79.6751 111.479
rtoes 9.30997
lfemur -60.199 14.5835 -8.84452
ltibia 113.765
lfoot 22.3512 -20.5281
ltoes 15.9845
153
root 12.4589 5.03911 -0.0953514 -707.735 -56.4596 -88.814
lowerback 68.9969 -4.39462 7.80473
upperback 14.6093 -4.34132 -2.36103
thorax -4.94906 -3.66869 -3.83776
lowerneck 1.77301 1.0258 -15.6599
upperneck 8.63611 1.14409 0.701751
head 2.44874 -0.0178503 3.01575
rclavicle 3.10104e-014 -9.54166e-015
rhumerus -48.4831 6.7202 -96.2715
rradius 22.6007
rwrist 23.8234
rhand -19.2932 -344.565
rfingers 7.12502
rthumb 7.02215 -374.429
lclavicle 3.10104e-014 -9.54166e-015
lhumerus -426.641 50.7326 -339.909
lradius 18.7828
lwrist -50.8127
lhand -71.7601 453.323
lfingers 7.12502
lthumb -43.2568 290.831
rfemur 178.551 -141.05 113.782
rtibia 140.692
rfoot 74.0863 68.8041
rtoes 7.11381
lfemur -60.0664 15.0352 -9.07652
ltibia 114.034
lfoot 23.1628 -21.6379
ltoes 13.1903
154
root 12.4763 4.96317 -0.0310523 -707.589 -56.8781 -89.3241
lowerback 69.1339 -4.63616 8.0923
upperback 14.4577 -4.38141 -2.23843
thorax -5.09351 -3.69192 -3.78556
lowerneck 1.58667 0.923335 -16.1117
upperneck 8.71834 1.05054 0.555333
head 2.52466 -0.0912357 3.05091
rclavicle 9.93923e-016 -8.26944e-014
rhumerus -49.0039 5.12388 -95.1523
rradius 21.6315
rwrist 26.0588
rhand -19.7067 -344.195
rfingers 7.12502
rthumb 6.62295 -374.072
lclavicle 9.93923e-016 -8.26944e-014
lhumerus -426.337 50.3378 -338.36
lradius 18.7484
lwrist -50.1206
lhand -71.7393 453.87
lfingers 7.12502
lthumb -43.2373 290.291
rfemur 174.85 -139.531 120.209
rtibia 139.523
rfoot 68.6679 67.4258
rtoes 5.81618
lfemur -59.9366 15.4397 -9.35254
ltibia 114.309
lfoot 23.8279 -22.3066
ltoes 11.6347
